<?xml version="1.0" encoding="UTF-8"?>
<!-- Generator: Adobe Illustrator 15.0.2, SVG Export Plug-In . SVG Version: 6.00 Build 0)  -->
<!DOCTYPE svg PUBLIC "-//W3C//DTD SVG 1.1//EN" "http://www.w3.org/Graphics/SVG/1.1/DTD/svg11.dtd">
<svg xmlns="http://www.w3.org/2000/svg" xmlns:xlink="http://www.w3.org/1999/xlink" version="1.1" x="0px" y="0px" width="512px" height="427.534px" 
viewBox="-0.329 0 512 427.534" enable-background="new -0.329 0 512 427.534" xml:space="preserve">
<style type="text/css" >
  <![CDATA[
	.nsExportIcon
	{
		fill:#FFFFFF;
	}
	.nsExportIcon:hover
	{
		fill:#000000;
	}
  ]]>
</style>
<g id="compExport" class="nsExportIcon">
	<path d="M383.552,350.474c-10.595,0-19.187,8.581-19.187,19.186v19.519H38.043V155.719H89.82c10.595,0,19.187-8.592,19.187-19.186   c0-10.598-8.592-19.187-19.187-19.187H18.857c-10.594,0-19.186,8.589-19.186,19.187v271.814c0,10.6,8.592,19.187,19.186,19.187   h364.694c10.594,0,19.186-8.587,19.186-19.187v-38.699C402.737,359.055,394.145,350.474,383.552,350.474z" />
	<path d="M506.051,146.306L365.355,5.621c-5.476-5.481-13.72-7.136-20.898-4.154c-7.179,2.971-11.842,9.965-11.842,17.722v63.27   c-73.23,3.333-131.281,26.065-172.753,67.695C96.71,213.54,96.298,297.112,96.308,300.629c0.032,8.684,5.899,16.269,14.299,18.479   c1.622,0.429,3.266,0.632,4.888,0.632c6.761,0,13.185-3.587,16.659-9.673c36.729-64.271,131.506-73.875,184.733-73.875   c5.889,0,11.183,0.117,15.717,0.3v64.067c0,7.763,4.674,14.754,11.842,17.72c7.189,2.986,15.423,1.327,20.898-4.154   l140.706-140.684c3.597-3.604,5.62-8.482,5.62-13.568C511.671,154.785,509.647,149.902,506.051,146.306z M370.976,254.238v-35.707   c0-9.788-7.366-18.011-17.093-19.068c-0.604-0.066-15.075-1.624-36.996-1.624c-45.166,0-116.522,6.525-169.616,42.047   c7.655-20.278,19.979-42.78,39.775-62.652c37.569-37.708,93.005-56.835,164.755-56.835c10.594,0,19.186-8.59,19.186-19.187V65.506   l94.362,94.367L370.976,254.238z" />
</g>
</svg>
